<?xml version="1.0" encoding="UTF-8" standalone="no"?>
<!DOCTYPE svg PUBLIC "-//W3C//DTD SVG 1.1//EN" "http://www.w3.org/Graphics/SVG/1.1/DTD/svg11.dtd">
<svg width="100%" height="100%" viewBox="0 0 142 444" version="1.1" xmlns="http://www.w3.org/2000/svg" xmlns:xlink="http://www.w3.org/1999/xlink" xml:space="preserve" xmlns:serif="http://www.serif.com/" style="fill-rule:evenodd;clip-rule:evenodd;stroke-linecap:round;stroke-linejoin:round;stroke-miterlimit:1.5;">
    <g transform="matrix(1,0,0,1,-179,-26)">
        <g>
            <g id="Tank" transform="matrix(1,0,0,1,0,6.19297)">
                <g>
                    <g transform="matrix(1.05797,0,0,1.65829,-12.5975,-54.285)">
                        <rect x="236.694" y="68.774" width="23.03" height="13.69" style="fill:rgb(164,169,176);"/>
                    </g>
                    <g transform="matrix(4.26172e-17,0.695992,-4.85771,2.97449e-16,614.791,-93.6456)">
                        <rect x="236.694" y="68.774" width="23.03" height="13.69" style="fill:rgb(164,169,176);"/>
                    </g>
                    <g transform="matrix(0.508475,0,0,0.508475,130.008,16.1536)">
                        <circle cx="235.984" cy="55.411" r="38.462" style="fill:rgb(164,169,176);stroke:rgb(36,35,49);stroke-width:16.05px;"/>
                    </g>
                    <g transform="matrix(0.853117,0,0,1,40.8289,-12.3507)">
                        <path d="M216.53,77.739C216.53,74.082 213.05,71.113 208.763,71.113L193.23,71.113C188.943,71.113 185.463,74.082 185.463,77.739L185.463,105.173C185.463,108.83 188.943,111.799 193.23,111.799L208.763,111.799C213.05,111.799 216.53,108.83 216.53,105.173L216.53,77.739Z" style="fill:rgb(36,35,49);"/>
                    </g>
                    <g transform="matrix(1,0,0,1,0,8.14863)">
                        <path d="M274.446,103.651L225.554,103.651L237.777,74.316L262.223,74.316L274.446,103.651Z" style="fill:rgb(164,169,176);"/>
                    </g>
                </g>
                <g>
                    <g transform="matrix(1,0,0,1,0,-6.19297)">
                        <path d="M314.537,167.862C314.537,132.243 285.619,103.325 250,103.325C214.381,103.325 185.463,132.243 185.463,167.862L185.463,404.498C185.463,440.117 214.381,469.035 250,469.035C285.619,469.035 314.537,440.117 314.537,404.498L314.537,167.862ZM228.488,138.831C228.488,132.906 233.298,128.096 239.222,128.096L260.778,128.096C266.702,128.096 271.512,132.906 271.512,138.831L271.512,433.529C271.512,439.453 266.702,444.263 260.778,444.263L239.222,444.263C233.298,444.263 228.488,439.453 228.488,433.529L228.488,138.831Z" style="fill:rgb(244,193,90);"/>
                    </g>
                    <g transform="matrix(0.93133,0,0,1,18.3816,11.4081)">
                        <rect x="172.751" y="354.628" width="52.847" height="37.158" style="fill:rgb(36,35,49);"/>
                    </g>
                    <g transform="matrix(0.93133,0,0,1,18.3816,11.4081)">
                        <rect x="271.795" y="354.628" width="52.847" height="37.158" style="fill:rgb(36,35,49);"/>
                    </g>
                    <g transform="matrix(0.93133,0,0,1,18.3816,-197.849)">
                        <rect x="172.751" y="354.628" width="52.847" height="37.158" style="fill:rgb(36,35,49);"/>
                    </g>
                    <g transform="matrix(0.93133,0,0,1,18.3816,-197.849)">
                        <rect x="271.795" y="354.628" width="52.847" height="37.158" style="fill:rgb(36,35,49);"/>
                    </g>
                </g>
            </g>
            <path d="M224.288,138.831L224.288,433.529C224.288,441.771 230.98,448.463 239.222,448.463L260.778,448.463C269.02,448.463 275.712,441.771 275.712,433.529C275.712,433.529 275.712,138.831 275.712,138.831C275.712,130.588 269.02,123.896 260.778,123.896C260.778,123.896 239.222,123.896 239.222,123.896C230.98,123.896 224.288,130.588 224.288,138.831ZM228.488,138.831C228.488,132.906 233.298,128.096 239.222,128.096L260.778,128.096C266.702,128.096 271.512,132.906 271.512,138.831L271.512,433.529C271.512,439.453 266.702,444.263 260.778,444.263L239.222,444.263C233.298,444.263 228.488,439.453 228.488,433.529L228.488,138.831Z" style="fill:rgb(36,35,49);"/>
        </g>
    </g>
</svg>
